{"title":"Street.Kings.2.Motor.City.Unrated.2011.720p.BRRip.x264.Feel-Free","uid":6313821,"size":2367672472,"categoryP":"video","categoryS":"hd___movies","magnet":"?xt=urn:btih:3201e04ef43d8ee4311c280877740546dec197ef&amp;dn=Street.Kings.2.Motor.City.Unrated.2011.720p.BRRip.x264.Feel-Free&amp;tr=udp%3A%2F%2Ftracker.openbittorrent.com%3A80&amp;tr=udp%3A%2F%2Fopen.demonii.com%3A1337&amp;tr=udp%3A%2F%2Ftracker.coppersurfer.tk%3A6969&amp;tr=udp%3A%2F%2Fexodus.desync.com%3A6969","seeders":0,"leechers":1,"uploader":"hiest","files":8,"time":1302630137,"description":"Genre:Action | Crime | Drama\nLanguage:English\nIMDb: &lt;a href=&quot;\nhttp://www.imdb.com/title/tt1707687/&quot; rel=&quot;nofollow&quot; target=&quot;_NEW&quot;&gt;\nhttp://www.imdb.com/title/tt1707687/&lt;/a&gt;\nSource:BluRay.720p.DTS.x264-CHD\n\n\nFormat : MPEG-4\nFormat profile : Base Media\nCodec ID : isom\nFile size : 2.20 GiB\nDuration : 1h 32mn\nOverall bit rate : 3 412 Kbps\n\n\nVideo\nFormat profile : &lt;a class=&quot;__cf_email__&quot; href=&quot;/cdn-cgi/l/email-protection&quot; data-cfemail=&quot;bff7d6d8d7fff38b918e&quot;&gt;[email&amp;#160;protected]&lt;/a&gt;&lt;script cf-hash='f9e31' type=&quot;text/javascript&quot;&gt;\n/* &lt;![CDATA[ */!function(){try{var t=&quot;currentScript&quot;in document?document.currentScript:function(){for(var t=document.getElementsByTagName(&quot;script&quot;),e=t.length;e--;)if(t[e].getAttribute(&quot;cf-hash&quot;))return t[e]}();if(t&amp;&amp;t.previousSibling){var e,r,n,i,c=t.previousSibling,a=c.getAttribute(&quot;data-cfemail&quot;);if(a){for(e=&quot;&quot;,r=parseInt(a.substr(0,2),16),n=2;a.length-n;n+=2)i=parseInt(a.substr(n,2),16)^r,e+=String.fromCharCode(i);e=document.createTextNode(e),c.parentNode.replaceChild(e,c)}}}catch(u){}}();/* ]]&gt; */&lt;/script&gt;\nFormat settings, CABAC : Yes\nFormat settings, ReFrames : 3 frames\nCodec ID : avc1\nCodec ID/Info : Advanced Video Coding\nDuration : 1h 32mn\nBit rate mode : Variable\nBit rate : 3 000 Kbps\nMaximum bit rate : 15.8 Mbps\nWidth : 1 280 pixels\nHeight : 720 pixels\nDisplay aspect ratio : 16:9\nFrame rate mode : Constant\nFrame rate : 23.976 fps\nColor space : YUV\nChroma subsampling : 4:2:0\nBit depth : 8 bits\nScan type : Progressive\nBits/(Pixel*Frame) : 0.136\nStream size : 1.92 GiB (87%)\nWriting library : x264\n\n\nAudio\nID : 2\nFormat : AAC\nFormat/Info : Advanced Audio Codec\nFormat version : Version 4\nFormat profile : LC\nFormat settings, SBR : No\nCodec ID : 40\nDuration : 1h 32mn\nBit rate mode : Variable\nBit rate : 437 Kbps\nMaximum bit rate : 521 Kbps\nChannel(s) : 6 channels\nChannel positions : Front: L C R, Side: L R, LFE\nSampling rate : 48.0 KHz\nStream size : 289 MiB (13%)\n\n\nPlot:\nMotor City moves the action to Michigan and explores the world of\ndirty cops on the violent streets of Detroit. Marty Kingston\n(Liotta) is an undercover narcotics detective who is shot and barely\nsurvives a drug bust gone wrong to save the life of his partner.\nWhen his partner is killed by a masked gunman four years later,\nMarty must team up with the hotheaded homicide detective Dan\nSullivan (Hatosy) to investigate a string of brutal cop murders and\nhunt down the cop killer. The investigation that ensues is shrouded\nin deception and loaded with plot twists that question the line\nbetween the rules of law and justice.","torrent":{"xt":"urn:btih:3201e04ef43d8ee4311c280877740546dec197ef","amp;dn":"Street.Kings.2.Motor.City.Unrated.2011.720p.BRRip.x264.Feel-Free","amp;tr":["udp%3A%2F%2Ftracker.openbittorrent.com%3A80","udp%3A%2F%2Fopen.demonii.com%3A1337","udp%3A%2F%2Ftracker.coppersurfer.tk%3A6969","udp%3A%2F%2Fexodus.desync.com%3A6969"],"infoHash":"3201e04ef43d8ee4311c280877740546dec197ef","infoHashBuffer":{"type":"Buffer","data":[50,1,224,78,244,61,142,228,49,28,40,8,119,116,5,70,222,193,151,239]},"announce":[],"urlList":[]}}